<?xml version="1.0" encoding="UTF-8" standalone="no"?>
<!-- Generator: Adobe Illustrator 26.2.1, SVG Export Plug-In . SVG Version: 6.00 Build 0)  -->

<svg
   version="1.1"
   x="0px"
   y="0px"
   viewBox="0 0 600 134.7"
   style="enable-background:new 0 0 600 134.7;"
   xml:space="preserve"
   id="svg9"
   sodipodi:docname="etchaskope-filled.svg"
   inkscape:version="1.3 (0e150ed6c4, 2023-07-21)"
   xmlns:inkscape="http://www.inkscape.org/namespaces/inkscape"
   xmlns:sodipodi="http://sodipodi.sourceforge.net/DTD/sodipodi-0.dtd"
   xmlns="http://www.w3.org/2000/svg"
   xmlns:svg="http://www.w3.org/2000/svg"><defs
   id="defs9"><inkscape:path-effect
     effect="fill_between_many"
     method="originald"
     linkedpaths="#path2-5,0,1|"
     id="path-effect22" /></defs><sodipodi:namedview
   id="namedview9"
   pagecolor="#ffffff"
   bordercolor="#000000"
   borderopacity="0.25"
   inkscape:showpageshadow="2"
   inkscape:pageopacity="0.0"
   inkscape:pagecheckerboard="0"
   inkscape:deskcolor="#d1d1d1"
   inkscape:zoom="37.693505"
   inkscape:cx="281.32167"
   inkscape:cy="93.71641"
   inkscape:window-width="2560"
   inkscape:window-height="1377"
   inkscape:window-x="-8"
   inkscape:window-y="-8"
   inkscape:window-maximized="1"
   inkscape:current-layer="g9" />&#10;<style
   type="text/css"
   id="style1">&#10;	.st0{fill:#FFFFFF;stroke:#000000;stroke-width:3;stroke-miterlimit:10;}&#10;</style>&#10;<g
   id="Layer_1">&#10;</g>&#10;<g
   id="Layer_2">&#10;	<g
   id="g9">&#10;		<path
   d="M288.5,54c-1.1,6-2.3,12.1-3.3,18.1c-0.4,2.7-1.7,3.6-4.2,3.8c-5.9,0.4-11.9,0.9-17.8,1.5c-2.7,0.3-3.2-0.8-2.5-3.1    c2.5-8.1,4.4-16.3,8.3-23.9c4.3-8.3,10.9-14.1,19.8-17.1c3.3-1.1,4.2-0.1,3.5,3.2c-1.2,5.8-2.2,11.7-3.3,17.6    C288.8,54,288.7,54,288.5,54z M285.3,55.9C285.3,55.9,285.3,55.9,285.3,55.9c0.9-5.1,1.9-10.1,2.7-15.2c0.2-0.9,0.3-2.3-0.2-2.8    c-1-1-2.1,0.2-3.1,0.6c-0.6,0.2-1.2,0.6-1.7,1c-12.2,7.6-15,20.5-18.6,32.9c-0.2,0.7,0,1.2,0.8,1.6c1.1,0.6,16-0.7,16.6-1.6    c0.6-0.9,0.9-2.1,1.1-3.3C283.7,64.8,284.5,60.3,285.3,55.9z"
   id="path1" />&#10;		<path
   inkscape:original-d="M 0,0"
   inkscape:path-effect="#path-effect22"
   d="m 279.21587,89.940636 c -1.55654,0.128038 -3.61242,0.344896 -5.29883,0.509766 1.47167,0.947975 3.21235,2.082321 4.58789,2.943359 0.41892,-1.052805 0.66016,-2.201403 0.71094,-3.453125 z"
   id="path22" /><path
   id="path2-5"
   transform="translate(-0.00288106,0.02852709)"
   d="m 279.21875,89.912109 c -1.55654,0.128038 -3.61242,0.344896 -5.29883,0.509766 1.47167,0.947975 3.21235,2.082321 4.58789,2.943359 0.41892,-1.052805 0.66016,-2.201403 0.71094,-3.453125 z m 1.62202,-2.553917 c -0.4625,-0.0625 -1.03711,0.06328 -1.53711,0.113281 -3.7,0.3 -7.4,0.699219 -12.5,1.199219 4.2,2.7 7.39961,4.800781 10.59961,6.800781 0.8,0.5 1.89961,1.5 2.59961,0.5 1.5,-2.3 1.79922,-4.999609 1.69922,-7.599609 -0.05,-0.7 -0.39883,-0.951172 -0.86133,-1.013672 z" />&#10;		<g
   id="g8">&#10;			<path
   d="M173.7,53.9c1.9-9.7,3.7-17.9,5.1-26.2c0.8-4.6,3.2-6.2,7.8-6.4c14-0.7,14-0.9,11.1,12.8c-0.6,2.9-1.2,5.8-1.8,9.2     c3.5-0.2,6.5-1.9,9.7-1.9c8.8-0.2,13.8,5.1,12.7,13.7c-1.1,9.3-3.2,18.3-5.3,27.4c-0.8,3.6-1.5,6.9,2.2,9.9     c2.5,2,1.1,5.7-2.4,6.3c-5.9,1-11.9,1.6-17.8,1.8c-4.7,0.1-5.1-3.5-4.4-7.1c1.4-7.5,3-15,4.4-22.5c0.3-1.5,1-3.2,0-5     c-4.2,1.7-5,5.6-5.9,9.1c-1.7,6.8-3.1,13.6-4.4,20.5c-0.7,4.1-3,6.1-7,6.4c-2.5,0.2-5,0.5-7.4,0.6c-5,0.2-5.9-0.6-7-6.2     c-5.8,4.6-11.8,8.3-19.2,8.6c-7.7,0.3-13.9-2.6-19-9.8c-1,5.9-3.7,9.3-8.9,10.7c-4.7,1.3-9.3,2.6-14,0.3c-2-1-2.7,0.1-3.1,1.8     c-0.9,3.7-2,7.4-2.8,11.1c-0.7,3-2.2,4.9-5.3,6c-14,4.7-27.9,4.4-41.5-0.8c-16-6.2-22.1-19.6-24-35.6c-0.4-3.5,0.1-6.9-5.1-7.2     c-2.6-0.2-3.3-3-2.6-5.1c1.7-5.6-0.1-13.4,8.8-14.9c1.6-0.3,1.5-2.4,1.9-3.8C34.4,39.7,44.4,25.5,61,16.6     c16.6-8.9,34-9.4,51.8-4.5c3.4,0.9,5,2.9,4,6.7c-1.1,4.2-1.9,8.5-2.5,12.7c-0.7,4.3-2.9,5.1-6.7,3.7c-9.4-3.6-19.1-4.5-28.9-1.9     C66.2,36.5,58,44.6,53.1,56.4c-1.5,3.5-0.4,3.8,2.8,3.6c9.6-0.8,19.2-1.6,28.8-1.8c5-0.1,10.1,0.6,15-1.1     c1.6-0.5,3.4-0.5,3.6-2.7c0.4-4.4,3.6-6.4,7-8.4c2.9-1.6,5.7-3.5,8.5-5.2c1.8-1.1,3.6-2,5.6-0.8c2.2,1.4,2.1,3.6,1.8,5.8     c-0.1,0.7-0.2,1.3-0.4,2c-1.5,7.4-1.3,7.8,5.4,10c2,0.6,2.4-1.3,3.3-2.3c7-7.1,15.2-11.1,25.5-10C165.2,46,169.2,48.7,173.7,53.9     z M48,63.1c3.5-12.8,9.5-22.9,20.6-29.1c12-6.7,24.7-7.3,37.5-2.6c3.9,1.4,5.4,0.8,5.9-3.3c0.4-3.1,1.1-6.2,1.8-9.3     c0.6-2.5-0.3-3.7-2.8-4.2c-7-1.6-14-3-21.2-2.7C61,13.1,39.9,30.6,31.4,60.5c-0.8,2.8-1.8,4.2-4.8,4.4     c-2.9,0.2-6.7,10.8-4.8,12.8c0.5,0.5,1.6,0.8,2.3,0.6c4.4-0.9,5.2,1.4,4.8,5c-0.1,1.5,0.1,3,0.2,4.5c1.8,15.1,7.5,27.8,22.8,33.4     c12.4,4.6,25,4.5,37.7,1c1.4-0.4,3.2-0.8,3.5-2.4c1.2-5.4,2.2-10.8,3.4-17.1c-6.1,4.7-12.1,6.3-18.5,6.7     c-19.7,1.3-32.3-9.4-32.6-27.7c-0.1-3.5,0.9-5,4.7-5.2c9.4-0.4,18.9-1.3,28.3-2c8.4-0.6,8.2-0.6,9.9-8.7c0.9-4.1,0.3-5.7-4.4-5.2     C72.2,61.7,60.5,62.3,48,63.1z M213.2,95.7c-4.1-4-4.1-8.2-3-12.6c2.3-9.5,4.8-19,5.6-28.9c0.5-6.6-3.1-10.3-9.8-10.1     c-5.2,0.2-9.3,2.8-14.1,6.1c0.4-2.4,0.5-4,0.8-5.5c1.2-5.7,2.4-11.4,3.6-17.1c0.3-1.2,1-3.1-0.6-3.5c-3.7-1-7.6-0.2-11.3,0.4     c-2.5,0.4-2.1,3.1-2.6,4.9c-5.9,19.9-7.6,40.8-12.8,60.9c-2.8,10.7-2.7,8.6,7.3,8.3c3.8-0.1,5.6-1.6,6.2-5.4c1-6.4,2.6-12.7,4-19     c0.6-2.9,1.7-5.7,3.3-8.3c2-3,5-5.2,8.4-3.8c3.3,1.3,1.1,4.7,0.7,7.1c-1.4,7.9-3.2,15.6-4.7,23.5c-0.3,1.8-1.5,4.5,1.9,4.4     C201.7,96.9,207.5,96.2,213.2,95.7z M139.3,100.7c14.2,3.2,25.5-8.8,29.4-18.7c0.9-2.2-0.2-2.8-2.1-2.6c-5.2,0.6-10.6-0.6-15,4.4     c-3.5,4-8.4,3.1-10-0.6c-2.4-5.4,1.2-16.3,6.4-19c2.9-1.5,5.7-2.1,7.4,1.8c0.5,1.2,1.2,1.9,2.6,1.8c3.6-0.3,7.3-0.6,10.9-0.9     c1.4-0.1,1.8-1.1,2.2-2.3c2-7.8-3.2-15.3-11.3-16.3c-7.2-0.9-13.6,1-19.1,5.5c-9.4,7.8-14.7,17.7-13.9,30.3     C127.5,94.1,131.1,99.1,139.3,100.7z M122.3,92.1c0.4-2.1,0.9-4.2,1.3-6.4c0.2-0.8,0.3-1.8-0.5-2.3c-0.8-0.5-1.5,0.2-2.2,0.6     c-1.6,1.1-3.3,3.6-5,2.2c-1.8-1.4,0-4,0.3-6c0.1-1,0.6-1.9,0.6-2.9c0.3-3.8,2-5.8,6-5.5c2.2,0.2,3.3-1,3.7-3.2     c0.3-2.1,0.7-4.3,1.2-6.4c0.8-2.9,0.1-4.6-3.3-4c-3.1,0.5-3.4-1.1-2.8-3.4c0.3-1.3,0.7-2.6,0.8-3.9c0.2-2.7,2.8-6.3,0.4-7.9     c-2.3-1.5-4.8,2-7.2,3.3c-4.6,2.5-9.6,4.8-9.7,11.4c0,1.9-2,2.1-3.5,1.9c-6.3-0.8-8.2,2.8-8.9,8.3c-0.7,5.7-1,5.9,4.9,5.5     c3.5-0.2,4.5,0.9,3.7,4.2c-1.1,4.9-2.1,9.8-2.6,14.7c-0.9,8,3.2,12,11.1,11.4C118.4,103.2,120.3,101.4,122.3,92.1z M67.6,105.8     c6.8,1.4,13.6,1,20.1-1.4c3.4-1.2,7.8-3.4,8-6.6c0.4-6,1.4-11.9,2.1-17.8c0.2-2.1-0.6-2.7-2.7-3.2c-4-0.9-7.8-0.1-11.8,0.3     C73.3,78.2,63.2,79,53,79.5c-3.8,0.2-4.7,1.6-4.4,5.2C49.5,95.9,56.1,103.5,67.6,105.8z M144.2,75.7c-0.1,2.4-1.5,5.5,0.9,7.2     c1.8,1.3,4.5-0.1,5.6-1.8c2.5-3.8,6.1-4.1,9.9-4.2c1.8,0,3.6-0.5,5.4-0.5c3-0.1,2.8-2.5,2.9-4.3c0-2.4-2.1-1.5-3.4-1.5     c-2.3,0-4.6,0.2-6.9,0.5c-2.3,0.3-4.6,0.1-5.6-2.2c-1.6-3.6-3.5-2-5.3-0.4C145.8,70.4,144.9,72.9,144.2,75.7z"
   id="path3" />&#10;			<path
   d="M307.7,45.3c-1.5,7.3-2.9,14.7-4.4,22c-0.6,2.7-0.3,3.9,3,3.8c5.6-0.1,6.4,1.1,5.6,6.5c-0.2,1.3-0.6,2.6-0.6,3.9     c-0.2,4.6-2.5,7.1-7.2,6.9c-4-0.2-6.2,1.5-6.6,5.6c-0.2,1.6-0.9,3.2-1,4.9c-0.6,8.9-4.7,15.5-11.8,20.8     c-5.5,4.2-6.8,4.4-10.1-1.6c-3.6-6.5-8.6-11.8-14.8-15.9c-1.9-1.2-3.3-1.6-4,1c-0.1,0.3-0.4,0.6-0.5,0.9     c-11.5,24.9-34.9,29.3-56.1,23.7c-7.2-1.9-8-3-7.5-10.3c0.2-2.8,0.5-5.6,0.9-8.4c0.6-3.9,2.6-5,6.3-3.4c8.6,3.9,17.4,3.8,26.2,1     c5-1.6,8.5-5,11-9.6c1.3-2.4,1.1-3.6-1.7-4.2c-3.4-0.7-5.6-2.5-4.5-6.3c1.2-4.1-0.3-10.6,6.7-10.4c6.8,0.2,8.9-3.1,10.5-8.9     c3.1-10.6,5.6-21.6,12-31c10.3-15.1,24.8-21.9,42.8-22.1c2.6,0,4.9,0.8,7.2,1.8c3,1.3,4.2,3.5,3.6,6.8c-1.5,7.5-3,15-4.5,22.5     C307.9,45.3,307.8,45.3,307.7,45.3z M304.2,47c0.1,0,0.2,0,0.3,0.1c1.4-6.9,2.4-13.8,4.2-20.5c1.7-6.8,1.1-9.3-7.6-9.2     c-20.3,0.1-35.2,9.5-43.9,28c-4,8.6-6.2,17.9-8.9,27c-1.4,4.9-4,6.9-8.7,6.3c-6.4-0.8-6.3,3.8-6.9,7.8c-0.7,4.6,3.3,3.4,5.4,3.9     c3.3,0.8,3.9,1.8,2.4,5.1c-4,8.4-10.2,13.7-19.5,15.4c-7.6,1.4-14.9,0.8-22.1-1.5c-1-0.3-2.4-1.8-3-0.3     c-1.6,3.9-1.4,8.2-1.2,12.3c0.1,2.5,3.2,2.7,5.1,3.2c19.5,5.2,43.9,1.8,53.6-25c1.3-3.5,2.9-3.2,5.5-1.7     c7.7,4.6,14.1,10.6,18.3,18.6c1.5,3,2.6,2.9,5.1,1c6.3-4.9,10.8-10.6,11.1-18.9c0.1-2,1-3.9,1.1-5.9c0.3-5.3,2.8-7.4,8.2-7.4     c5,0.1,7.4-3.4,6.7-9.1c-0.6-4.6-4.3-2.1-6.3-2c-3.8,0.3-4.1-1-3.4-4.2C301.3,62.3,302.7,54.6,304.2,47z"
   id="path4" />&#10;			<g
   id="g7">&#10;				<path
   d="m 443.7,103.9 c -1.7,-0.2 -2.7,0.1 -3.8,1.5 -2.1,2.6 -4.8,4.7 -6.8,7.3 -3.2,4 -6.4,3.9 -10.3,1.2 -6.2,-4.2 -12.2,-8.6 -17.2,-14.3 -1.8,-2.1 -3.5,-3.5 -4.4,0.6 -0.9,4.1 -3.6,5.7 -7.6,5.6 -4.4,-0.1 -8.8,1.8 -13.1,-0.9 -2.1,-1.4 -2.7,1.4 -3.6,2.4 -9.5,11 -21.3,17.3 -36,17.6 -15.5,0.2 -26.5,-8.5 -27.8,-22.2 -0.6,-6.7 1.7,-12.8 4.5,-18.7 1.4,-2.9 3.9,-2.9 6.4,-1.7 2.8,1.4 5.5,3.2 8.3,4.6 3.5,1.7 5.5,3.8 4.1,8.2 -1.2,3.5 1.1,5.6 4.3,6.7 10.6,3.5 24,-7.4 22.9,-18.5 -0.4,-4 -2.8,-6.2 -6.3,-7.5 -4.2,-1.6 -8.5,-2.8 -12.6,-4.6 -11.3,-4.9 -15.6,-16.3 -10.8,-27.8 6.1,-14.6 17.9,-21.6 34.6,-20.6 13.6,0.8 21.2,8.6 22.2,22.1 0.3,3.8 -1.3,5.7 -4.8,6.2 -3.1,0.5 -6.3,0.6 -9.4,1.1 -4.5,0.7 -8.3,0.5 -9.3,-5.2 -0.5,-2.8 -3,-2.8 -5.2,-2.8 -2.6,0.1 -5,0.8 -6.3,3.3 -1,1.9 0.4,2.8 1.8,3.4 1.8,0.8 3.7,1.5 5.6,2 9.8,2.5 17.4,8 22.4,16.9 0.6,0.1 1.1,0.1 1.7,0.2 1.7,-8.8 3.5,-17.5 5.2,-26.3 0.9,-4.6 2.1,-9.1 2.9,-13.7 0.8,-4.3 3.1,-6.4 7.5,-6.3 2.5,0 5,-0.2 7.5,-0.3 5.2,-0.2 6.6,1.4 5.7,6.6 -1.3,7.6 -3,15.2 -4.1,23.1 8,-7.5 17.9,-5.2 26.7,-4.8 4.7,0.2 8.2,-0.7 12.2,-2.2 L 439.84779,56.110897 428.3994,66.575338 C 412.8994,76.775338 413.7,81 426.9,90.5 c 0.1,0.2 0.3,0.2 1.1,0.3 z M 317,94.4 c -3.1,15.5 6.7,26.9 23,27 21.1,0.1 39.5,-15.1 43.3,-36 2.2,-12.1 -3.1,-22.1 -13.7,-26.8 -4.1,-1.8 -8.4,-3.1 -12.6,-4.7 -3,-1.1 -5.7,-2.7 -5,-6.4 0.7,-4.1 3.8,-6.1 7.7,-6.7 3.9,-0.6 8.3,-1.1 9.8,3.5 1.4,4.5 4,4.9 7.8,4.3 2.4,-0.4 5,-0.4 7.4,-0.7 1.7,-0.2 2.5,-1 2.6,-2.9 0.4,-7.5 -4.1,-14.9 -11.1,-17.9 -5.6,-2.5 -11.4,-1.9 -17.1,-1.2 -11.4,1.4 -20.9,10.2 -23.5,21.5 -2.1,9 1.6,16.8 10,20.5 4.2,1.9 8.7,3.1 13.1,4.8 4.5,1.7 7.5,4.6 8,9.8 1.4,13.1 -14,26 -26.6,22.1 -4.4,-1.4 -7.7,-4.2 -6.7,-9 0.8,-3.9 -0.8,-5.3 -3.7,-6.9 C 320,83.1 319.2,83.4 317,94.4 Z M 400.4,89 c 2.3,0.8 3.1,2.6 4.2,4 4.4,5.5 9.3,10.3 15.1,14.4 8.3,6 8.2,5.9 15.3,-1.5 2.5,-2.6 2.5,-3.9 -0.7,-5.9 C 425.9,95 419,88.4 413.6,80.2 411.9,77.6 412,76 414.5,74 c 7.4,-6.2 14.6,-12.6 21.8,-19 1.2,-1.1 3.2,-1.8 3.3,-4.4 -11.5,0 -23,-1.3 -31.8,9.4 0.8,-8.4 2.3,-16 3.8,-23.5 2.1,-10.5 2.1,-10.4 -8.4,-10 -3.3,0.1 -4.7,1.2 -5.4,4.4 -4.4,21 -9,42 -13.4,63 -1.9,9.1 -1.8,9 7.7,8.7 3.5,-0.1 5.5,-1.2 6,-4.9 0.5,-2.9 1.5,-5.7 2.3,-8.7 z"
   id="path5"
   sodipodi:nodetypes="cccccsccccccccccccccccccccccccccccccccccccccscscccscccccscccccccsccccccccccscccccc" />&#10;				&#10;				&#10;			<path
   id="path18"
   style="fill:#ffffff;stroke:#000000;stroke-width:3;stroke-miterlimit:10"
   d="m 547.3751,57.027668 c -0.5,-1.8 4.4,-5.600004 9.4,-5.600004 3.9,0 8,2.3 7.9,3.900004 -0.0973,0.924106 -1.4483,1.611654 -2.94856,2.097162 -1.58433,0.512716 -3.33509,0.800112 -3.95144,0.902838 -3.8,0.6 -9.9,0.6 -10.4,-1.3 z m 9.82998,-8.408527 a 0.88071933,0.88071933 0 0 1 0.0234,0 c 3.29744,0.07319 6.7428,1.109028 9.26367,3.455078 a 0.88071933,0.88071933 0 0 1 0.002,0.002 c 1.40079,1.31188 2.0718,3.591093 0.85156,5.376953 a 0.88071933,0.88071933 0 0 1 -0.002,0.0059 c -1.47798,2.133473 -4.0195,2.728078 -6.01563,3.251953 a 0.88071933,0.88071933 0 0 1 -0.0234,0.0059 c -3.77129,0.874337 -7.75645,1.241666 -11.66016,0.589844 h -0.002 c -0.96149,-0.158402 -1.99934,-0.494532 -2.89258,-1.107422 -0.89377,-0.613252 -1.65262,-1.560944 -1.82227,-2.800782 a 0.88071933,0.88071933 0 0 1 0,-0.0098 c -0.16384,-1.29753 0.28711,-2.470424 0.94532,-3.41211 0.6582,-0.941685 1.52281,-1.696292 2.32812,-2.300781 a 0.88071933,0.88071933 0 0 1 0.0117,-0.0078 c 2.58519,-1.872664 5.74661,-3.031812 8.99219,-3.048828 z" /><path
   id="path7-7"
   style="fill:#ffffff;stroke:#000000;stroke-width:3;stroke-miterlimit:10"
   d="m 576.4751,75.527668 c -1.4,-3 -6.8,-4.1 -10.8,-3.3 -7.6,1.4 -9.4,9.3 -14,8.7 -4.2,-0.5 -8,-7.6 -6.2,-11 1,-1.9 6.8,-2.3 18.5,-3.1 10.2,-0.7 12.3,-0.9 14,-2.8 3.2,-3.6 1.8,-10.500004 -0.3,-14.700004 -3.9,-7.9 -13.3,-11.2 -20.2,-10.7 -14.1,1 -24,16.600004 -26.6,29.000004 -1,4.7 -3.2,15.5 3.6,23 7.1,7.8 19.6,7.3 27.6,3.8 9.2,-4.2 16.7,-14.2 14.4,-18.9 z M 558.68359,41.542969 c -5.24117,0.161086 -10.15622,2.932496 -13.86328,6.669922 -4.92755,4.966022 -8.35892,11.358208 -10.22656,18.113281 -1.33994,5.366948 -2.25149,10.98795 -0.87109,16.248047 a 0.88071933,0.88071933 0 0 1 0.002,0.0098 c 1.05518,4.221285 4.13043,7.892612 8.10351,9.664063 a 0.88071933,0.88071933 0 0 1 0.006,0.0039 c 5.14145,2.340344 11.19349,2.221389 16.64258,0.650391 5.02241,-1.468683 9.42678,-4.775644 12.78711,-8.824219 1.56513,-2.030002 3.02092,-4.200331 3.17383,-6.554688 0.0324,-0.504782 -0.1637,-0.843817 -0.58008,-1.208984 -0.41638,-0.365166 -1.05214,-0.671507 -1.63672,-0.853516 a 0.88071933,0.88071933 0 0 1 -0.008,-0.002 c -3.34356,-1.073246 -7.30569,-0.536401 -9.92578,1.78711 a 0.88071933,0.88071933 0 0 1 -0.0332,0.0293 c -2.22858,1.782852 -3.95425,4.794808 -7.22657,6.164062 a 0.88071933,0.88071933 0 0 1 -0.004,0.002 c -3.02116,1.248254 -6.30562,-0.120904 -8.36133,-2.234375 l -0.002,-0.0039 c -9.8e-4,-0.001 -0.003,-9.51e-4 -0.004,-0.002 -2.49709,-2.526139 -4.25497,-6.050879 -4.06641,-9.759766 v -0.002 c 0.0897,-1.997887 1.10964,-4.097417 3.14649,-4.962891 10e-4,-5.9e-4 0.003,-0.0014 0.004,-0.002 2.92185,-1.278906 6.05241,-1.410493 8.9336,-1.734375 a 0.88071933,0.88071933 0 0 1 0.0195,-0.002 c 5.61536,-0.503525 11.19858,-0.762265 16.7168,-1.269531 1.73396,-0.242051 3.36779,-0.293849 4.54296,-1.025391 1.41397,-1.290992 1.58839,-3.577503 1.36329,-5.683593 -0.49615,-4.28395 -2.49247,-8.491332 -5.91016,-11.085938 a 0.88071933,0.88071933 0 0 1 -0.008,-0.0078 c -3.56242,-2.780217 -8.18515,-4.232776 -12.70899,-4.123047 z" /><path
   id="path20"
   style="fill:#ffffff;stroke:#000000;stroke-width:3;stroke-miterlimit:10"
   d="m 508.83831,77.030041 c -1.4,5.1 -5.5,10.3 -7.9,9.6 -3.2,-0.9 -4.3,-8.9 -4,-12.3 0.9,-1.7 6.6,-11.8 9.4,-11.2 2.9,0.6 4.1,8 2.5,13.9 z m -3.35394,-17.481213 c 0.56778,-0.117478 1.2055,-0.140638 1.89844,0.0059 1.99815,0.418885 3.27045,1.845492 4.04102,3.199219 0.77238,1.356918 1.20631,2.838972 1.48437,4.439453 0.55612,3.200963 0.44274,6.88425 -0.5039,10.375 a 3.3207254,3.3207254 0 0 1 -0.004,0.0098 c -0.84267,3.06972 -2.37176,5.937394 -4.19531,8.1875 -0.91178,1.125053 -1.88739,2.100926 -3.08399,2.855469 -1.1935,0.75259 -2.83757,1.415069 -4.73632,0.867187 -1.9738,-0.562929 -3.16926,-1.982088 -3.96094,-3.324219 -0.79454,-1.346973 -1.28593,-2.793419 -1.65625,-4.267578 -0.74066,-2.948317 -0.97471,-5.906412 -0.77344,-8.1875 a 3.3207254,3.3207254 0 0 1 0.37305,-1.261718 c 0.5337,-1.008107 2.1826,-3.96854 4.21093,-6.830079 1.01417,-1.430769 2.09354,-2.816808 3.31836,-3.972656 0.61242,-0.577923 1.25663,-1.110994 2.09571,-1.548828 0.41954,-0.218917 0.9209,-0.428672 1.49218,-0.546875 z" /><path
   id="path19"
   style="fill:#ffffff;stroke:#000000;stroke-width:3;stroke-miterlimit:10"
   d="m 458.73831,77.330041 c -1.4,5.1 -5.5,10.3 -7.9,9.6 -3.2,-0.9 -4.3,-8.9 -4,-12.3 0.9,-1.7 6.6,-11.8 9.4,-11.2 2.9,0.6 4.2,8.1 2.5,13.9 z m -3.35354,-17.482385 c 0.5678,-0.117516 1.20539,-0.14066 1.89843,0.0059 2.01258,0.421871 3.27403,1.849326 4.05078,3.205078 0.77858,1.358937 1.22386,2.850732 1.50977,4.460937 0.57046,3.212723 0.46143,6.906036 -0.55469,10.388672 -0.84456,3.058607 -2.36739,5.916072 -4.18554,8.158203 -0.91213,1.124819 -1.88722,2.101302 -3.08399,2.855469 -1.19367,0.752215 -2.83786,1.413037 -4.73633,0.865234 -1.97349,-0.562846 -3.1692,-1.982263 -3.96093,-3.324218 -0.7946,-1.3468 -1.28591,-2.791672 -1.65625,-4.265625 -0.7407,-2.947907 -0.97471,-5.906468 -0.77344,-8.1875 a 3.3207254,3.3207254 0 0 1 0.37304,-1.261719 c 0.53393,-1.008518 2.1841,-3.968096 4.2129,-6.830078 1.01439,-1.430991 2.0934,-2.81863 3.31835,-3.97461 0.61248,-0.57799 1.25662,-1.110942 2.09571,-1.548828 0.41954,-0.218943 0.92087,-0.428633 1.49219,-0.546875 z" /><path
   id="path6-1"
   style="fill:#ffffff;stroke:#000000;stroke-width:3;stroke-miterlimit:10"
   d="m 501.63831,44.430041 c -10.1,2.6 -17.5,13.2 -19.9,17.6 -0.8,1.5 -1.5,3.2 -2.2,5.1 -0.4,-4.3 -1.5,-8.6 -3.3,-12.7 -4.1,-9 -13.8,-10.5 -24.5,-7.8 -10.1,2.6 -17.5,13.2 -19.9,17.6 -4.3,8.1 -7.7,24.3 2.2,33.9 7.2,6.999999 16.7,7.999999 24.3,4.799999 9.4,-3.899999 15.8,-11.199999 19,-19.699999 0,2.6 -0.1,5.6 -0.5,9.3 -1.5,13.699999 -5,16.999999 -2.3,22.599999 2.8,5.8 10.3,10.3 15.5,8.3 3.8,-1.5 5.5,-6.2 6,-7.7 1.3,-3.8 0.8,-6.6 0.6,-10.3 -0.1,-1.2 -0.1,-2.2 -0.1,-3.2 4.1,0.6 8.1,0 11.8,-1.5 19.5,-7.999999 26,-30.499999 17.8,-48.599999 -4.1,-8.9 -13.9,-10.4 -24.5,-7.7 z m 8.21911,1.800428 c -2.19651,0.0888 -4.57196,0.458586 -7.0293,1.083984 -8.35958,2.151972 -15.69358,12.098359 -17.80273,15.957031 -0.68582,1.287344 -1.33681,2.85113 -2.00977,4.677735 a 3.3207254,3.3207254 0 0 1 -6.42187,-0.841797 c -0.36614,-3.935958 -1.3766,-7.883698 -3.02734,-11.650391 -1.66913,-3.649468 -4.13021,-5.492539 -7.61329,-6.439453 -3.48822,-0.948312 -8.05856,-0.75421 -13.0332,0.5 -8.35243,2.155035 -15.67854,12.08581 -17.79101,15.947266 -1.88878,3.560713 -3.69939,9.271616 -3.83399,14.902343 -0.13468,5.63415 1.27247,11.032796 5.41602,15.050782 a 3.3207254,3.3207254 0 0 1 0.004,0.002 c 6.26666,6.092591 14.23502,6.839271 20.69532,4.11914 a 3.3207254,3.3207254 0 0 1 0.0176,-0.0059 c 8.53824,-3.542459 14.25757,-10.082342 17.16407,-17.802734 a 3.3207254,3.3207254 0 0 1 6.42773,1.169922 c 0,2.685135 -0.10528,5.824441 -0.51953,9.65625 a 3.3207254,3.3207254 0 0 1 0,0.0039 c -0.77726,7.098963 -2.10288,11.654803 -2.78516,14.703123 -0.68227,3.04832 -0.81967,4.03106 0.17578,6.09571 1.04176,2.15698 3.18675,4.34221 5.47461,5.61523 2.28312,1.27037 4.50868,1.52927 5.83204,1.02539 1.90503,-0.76843 3.61011,-4.32252 4.05273,-5.65039 a 3.3207254,3.3207254 0 0 1 0.008,-0.0234 c 1.0538,-3.08032 0.63702,-5.13899 0.42578,-9.04687 l 0.008,0.0957 c -0.11273,-1.35273 -0.11133,-2.47547 -0.11133,-3.47461 a 3.3207254,3.3207254 0 0 1 3.80078,-3.285156 c 3.47593,0.508673 6.84833,0.01225 10.05859,-1.287109 l 0.002,-0.002 C 525.15509,90.057518 530.97377,69.73288 523.4771,53.177727 520.98723,47.78673 516.44896,45.96399 509.85796,46.230462 Z" /></g>&#10;		</g>&#10;	</g>&#10;</g>&#10;</svg>
