M48
; DRILL file {KiCad 7.0.7} date Fri Oct 20 22:21:14 2023
; FORMAT={-:-/ absolute / inch / decimal}
; #@! TF.CreationDate,2023-10-20T22:21:14-07:00
; #@! TF.GenerationSoftware,Kicad,Pcbnew,7.0.7
; #@! TF.FileFunction,Plated,1,2,PTH
FMAT,2
INCH
; #@! TA.AperFunction,Plated,PTH,ComponentDrill
T1C0.0394
; #@! TA.AperFunction,Plated,PTH,ComponentDrill
T2C0.0472
; #@! TA.AperFunction,Plated,PTH,ComponentDrill
T3C0.0669
; #@! TA.AperFunction,Plated,PTH,ComponentDrill
T4C0.0827
%
G90
G05
T1
X5.0719Y-3.3769
X5.0719Y-3.4769
X5.0719Y-3.5769
X5.0719Y-3.6769
X5.0719Y-3.8769
X5.0719Y-3.9769
X5.0719Y-4.0769
X5.0719Y-4.1769
X5.2719Y-2.0769
X5.2719Y-2.0769
X5.2719Y-2.1769
X5.2719Y-2.1769
X5.2719Y-2.2769
X5.2719Y-2.2769
X5.2719Y-2.3769
X5.2719Y-2.3769
X5.2719Y-2.4769
X5.2719Y-2.4769
X5.2719Y-2.5769
X5.2719Y-2.5769
X5.2719Y-2.6769
X5.2719Y-2.6769
X5.2719Y-2.7769
X5.2719Y-2.7769
X5.2719Y-2.8769
X5.2719Y-2.8769
X5.2719Y-2.9769
X5.2719Y-2.9769
X5.2719Y-3.0769
X5.2719Y-3.0769
X5.2719Y-3.1769
X5.2719Y-3.1769
X5.8781Y-1.85
X5.8781Y-2.4209
X5.9766Y-2.4209
X6.075Y-1.85
X6.075Y-2.4209
X6.5994Y-3.3769
X6.5994Y-3.4769
X6.5994Y-3.5769
X6.5994Y-3.6769
X6.5994Y-3.8769
X6.5994Y-3.9769
X6.5994Y-4.0769
X6.5994Y-4.1769
X6.7994Y-2.0769
X6.7994Y-2.0769
X6.7994Y-2.1769
X6.7994Y-2.1769
X6.7994Y-2.2769
X6.7994Y-2.2769
X6.7994Y-2.3769
X6.7994Y-2.3769
X6.7994Y-2.4769
X6.7994Y-2.4769
X6.7994Y-2.5769
X6.7994Y-2.5769
X6.7994Y-2.6769
X6.7994Y-2.6769
X6.7994Y-2.7769
X6.7994Y-2.7769
X6.7994Y-2.8769
X6.7994Y-2.8769
X6.7994Y-2.9769
X6.7994Y-2.9769
X6.7994Y-3.0769
X6.7994Y-3.0769
X6.7994Y-3.1769
X6.7994Y-3.1769
T2
X5.9195Y-3.1145
X5.9195Y-5.4177
X6.0573Y-5.4177
T3
X5.823Y-3.3252
X5.823Y-5.207
X6.1537Y-3.2779
X6.1537Y-5.2543
T4
G00X5.7167Y-2.1236
M15
G01X5.7167Y-2.1276
M16
G05
G00X6.2364Y-2.1236
M15
G01X6.2364Y-2.1276
M16
G05
T0
M30
