%TF.GenerationSoftware,KiCad,Pcbnew,7.0.7*%
%TF.CreationDate,2023-10-20T20:39:32-07:00*%
%TF.ProjectId,etchascope-pcb,65746368-6173-4636-9f70-652d7063622e,rev?*%
%TF.SameCoordinates,Original*%
%TF.FileFunction,Soldermask,Bot*%
%TF.FilePolarity,Negative*%
%FSLAX46Y46*%
G04 Gerber Fmt 4.6, Leading zero omitted, Abs format (unit mm)*
G04 Created by KiCad (PCBNEW 7.0.7) date 2023-10-20 20:39:32*
%MOMM*%
%LPD*%
G01*
G04 APERTURE LIST*
%ADD10C,4.000000*%
%ADD11R,1.700000X1.700000*%
%ADD12O,1.700000X1.700000*%
%ADD13C,1.524000*%
%ADD14O,2.900000X3.000000*%
%ADD15R,1.750000X1.750000*%
%ADD16C,1.750000*%
%ADD17C,2.700000*%
G04 APERTURE END LIST*
D10*
%TO.C,REF\u002A\u002A*%
X131905000Y-145192963D03*
%TD*%
D11*
%TO.C,J2*%
X133905000Y-52752963D03*
D12*
X133905000Y-55292963D03*
X133905000Y-57832963D03*
X133905000Y-60372963D03*
X133905000Y-62912963D03*
X133905000Y-65452963D03*
X133905000Y-67992963D03*
X133905000Y-70532963D03*
X133905000Y-73072963D03*
X133905000Y-75612963D03*
X133905000Y-78152963D03*
X133905000Y-80692963D03*
D11*
X128825000Y-85772963D03*
D12*
X128825000Y-88312963D03*
X128825000Y-90852963D03*
X128825000Y-93392963D03*
D11*
X128825000Y-98472963D03*
D12*
X128825000Y-101012963D03*
X128825000Y-103552963D03*
X128825000Y-106092963D03*
%TD*%
D10*
%TO.C,REF\u002A\u002A*%
X171905000Y-145192963D03*
%TD*%
D13*
%TO.C,SW1*%
X149305000Y-61490000D03*
X154305000Y-61490000D03*
X151805000Y-61490000D03*
X149305000Y-46990000D03*
X154305000Y-46990000D03*
D14*
X145205000Y-53990000D03*
X158405000Y-53990000D03*
%TD*%
D10*
%TO.C,REF\u002A\u002A*%
X171905000Y-39192963D03*
%TD*%
D11*
%TO.C,J3*%
X172705000Y-52752963D03*
D12*
X172705000Y-55292963D03*
X172705000Y-57832963D03*
X172705000Y-60372963D03*
X172705000Y-62912963D03*
X172705000Y-65452963D03*
X172705000Y-67992963D03*
X172705000Y-70532963D03*
X172705000Y-73072963D03*
X172705000Y-75612963D03*
X172705000Y-78152963D03*
X172705000Y-80692963D03*
D11*
X167625000Y-85772963D03*
D12*
X167625000Y-88312963D03*
X167625000Y-90852963D03*
X167625000Y-93392963D03*
D11*
X167625000Y-98472963D03*
D12*
X167625000Y-101012963D03*
X167625000Y-103552963D03*
X167625000Y-106092963D03*
%TD*%
D10*
%TO.C,REF\u002A\u002A*%
X131905000Y-39192963D03*
%TD*%
D15*
%TO.C,RV1*%
X150355000Y-137609000D03*
D16*
X153855000Y-137609000D03*
X150355000Y-79109000D03*
D17*
X156305000Y-133459000D03*
X147905000Y-132259000D03*
X147905000Y-84459000D03*
X156305000Y-83259000D03*
%TD*%
M02*
