%TF.GenerationSoftware,KiCad,Pcbnew,7.0.7*%
%TF.CreationDate,2023-10-20T22:21:11-07:00*%
%TF.ProjectId,etchascope-pcb,65746368-6173-4636-9f70-652d7063622e,rev?*%
%TF.SameCoordinates,Original*%
%TF.FileFunction,Copper,L1,Top*%
%TF.FilePolarity,Positive*%
%FSLAX46Y46*%
G04 Gerber Fmt 4.6, Leading zero omitted, Abs format (unit mm)*
G04 Created by KiCad (PCBNEW 7.0.7) date 2023-10-20 22:21:11*
%MOMM*%
%LPD*%
G01*
G04 APERTURE LIST*
G04 Aperture macros list*
%AMRoundRect*
0 Rectangle with rounded corners*
0 $1 Rounding radius*
0 $2 $3 $4 $5 $6 $7 $8 $9 X,Y pos of 4 corners*
0 Add a 4 corners polygon primitive as box body*
4,1,4,$2,$3,$4,$5,$6,$7,$8,$9,$2,$3,0*
0 Add four circle primitives for the rounded corners*
1,1,$1+$1,$2,$3*
1,1,$1+$1,$4,$5*
1,1,$1+$1,$6,$7*
1,1,$1+$1,$8,$9*
0 Add four rect primitives between the rounded corners*
20,1,$1+$1,$2,$3,$4,$5,0*
20,1,$1+$1,$4,$5,$6,$7,0*
20,1,$1+$1,$6,$7,$8,$9,0*
20,1,$1+$1,$8,$9,$2,$3,0*%
G04 Aperture macros list end*
%TA.AperFunction,ComponentPad*%
%ADD10R,1.700000X1.700000*%
%TD*%
%TA.AperFunction,ComponentPad*%
%ADD11O,1.700000X1.700000*%
%TD*%
%TA.AperFunction,SMDPad,CuDef*%
%ADD12RoundRect,0.200000X-0.275000X0.200000X-0.275000X-0.200000X0.275000X-0.200000X0.275000X0.200000X0*%
%TD*%
%TA.AperFunction,SMDPad,CuDef*%
%ADD13RoundRect,0.200000X-0.200000X-0.275000X0.200000X-0.275000X0.200000X0.275000X-0.200000X0.275000X0*%
%TD*%
%TA.AperFunction,SMDPad,CuDef*%
%ADD14RoundRect,0.200000X0.275000X-0.200000X0.275000X0.200000X-0.275000X0.200000X-0.275000X-0.200000X0*%
%TD*%
%TA.AperFunction,SMDPad,CuDef*%
%ADD15RoundRect,0.225000X0.250000X-0.225000X0.250000X0.225000X-0.250000X0.225000X-0.250000X-0.225000X0*%
%TD*%
%TA.AperFunction,ComponentPad*%
%ADD16C,1.524000*%
%TD*%
%TA.AperFunction,ComponentPad*%
%ADD17O,2.900000X3.000000*%
%TD*%
%TA.AperFunction,ComponentPad*%
%ADD18R,1.750000X1.750000*%
%TD*%
%TA.AperFunction,ComponentPad*%
%ADD19C,1.750000*%
%TD*%
%TA.AperFunction,ComponentPad*%
%ADD20C,2.700000*%
%TD*%
%TA.AperFunction,SMDPad,CuDef*%
%ADD21RoundRect,0.150000X-0.150000X0.325000X-0.150000X-0.325000X0.150000X-0.325000X0.150000X0.325000X0*%
%TD*%
%TA.AperFunction,SMDPad,CuDef*%
%ADD22RoundRect,0.150000X-0.325000X0.150000X-0.325000X-0.150000X0.325000X-0.150000X0.325000X0.150000X0*%
%TD*%
%TA.AperFunction,Conductor*%
%ADD23C,0.250000*%
%TD*%
G04 APERTURE END LIST*
D10*
%TO.P,J3,1,3V3*%
%TO.N,VSS*%
X167625000Y-85772963D03*
X167625000Y-98472963D03*
X172705000Y-52752963D03*
X172705000Y-52752963D03*
D11*
%TO.P,J3,2,SDA*%
%TO.N,/SDA*%
X167625000Y-88312963D03*
X167625000Y-101012963D03*
X172705000Y-55292963D03*
X172705000Y-55292963D03*
%TO.P,J3,3,SCL*%
%TO.N,/SCL*%
X167625000Y-90852963D03*
X167625000Y-103552963D03*
X172705000Y-57832963D03*
X172705000Y-57832963D03*
%TO.P,J3,4,GP26*%
%TO.N,/GP26*%
X167625000Y-93392963D03*
X167625000Y-106092963D03*
X172705000Y-60372963D03*
X172705000Y-60372963D03*
%TO.P,J3,5,GP27*%
%TO.N,/GP27*%
X172705000Y-62912963D03*
X172705000Y-62912963D03*
%TO.P,J3,6,GP28*%
%TO.N,/GP28*%
X172705000Y-65452963D03*
X172705000Y-65452963D03*
%TO.P,J3,7,DGND*%
%TO.N,GNDD*%
X172705000Y-67992963D03*
X172705000Y-67992963D03*
%TO.P,J3,8,IN3*%
%TO.N,/IN3*%
X172705000Y-70532963D03*
X172705000Y-70532963D03*
%TO.P,J3,9,IN4*%
%TO.N,/IN4*%
X172705000Y-73072963D03*
X172705000Y-73072963D03*
%TO.P,J3,10,OUT3*%
%TO.N,/OUT3*%
X172705000Y-75612963D03*
X172705000Y-75612963D03*
%TO.P,J3,11,OUT4*%
%TO.N,/OUT4*%
X172705000Y-78152963D03*
X172705000Y-78152963D03*
%TO.P,J3,12,AGND*%
%TO.N,GNDA*%
X172705000Y-80692963D03*
X172705000Y-80692963D03*
%TD*%
D10*
%TO.P,J2,1,3V3*%
%TO.N,VSS*%
X128825000Y-85772963D03*
X128825000Y-98472963D03*
X133905000Y-52752963D03*
X133905000Y-52752963D03*
D11*
%TO.P,J2,2,SDA*%
%TO.N,/SDA*%
X128825000Y-88312963D03*
X128825000Y-101012963D03*
X133905000Y-55292963D03*
X133905000Y-55292963D03*
%TO.P,J2,3,SCL*%
%TO.N,/SCL*%
X128825000Y-90852963D03*
X128825000Y-103552963D03*
X133905000Y-57832963D03*
X133905000Y-57832963D03*
%TO.P,J2,4,GP26*%
%TO.N,/GP26*%
X128825000Y-93392963D03*
X128825000Y-106092963D03*
X133905000Y-60372963D03*
X133905000Y-60372963D03*
%TO.P,J2,5,GP27*%
%TO.N,/GP27*%
X133905000Y-62912963D03*
X133905000Y-62912963D03*
%TO.P,J2,6,GP28*%
%TO.N,/GP28*%
X133905000Y-65452963D03*
X133905000Y-65452963D03*
%TO.P,J2,7,DGND*%
%TO.N,GNDD*%
X133905000Y-67992963D03*
X133905000Y-67992963D03*
%TO.P,J2,8,IN3*%
%TO.N,/IN3*%
X133905000Y-70532963D03*
X133905000Y-70532963D03*
%TO.P,J2,9,IN4*%
%TO.N,/IN4*%
X133905000Y-73072963D03*
X133905000Y-73072963D03*
%TO.P,J2,10,OUT3*%
%TO.N,/OUT3*%
X133905000Y-75612963D03*
X133905000Y-75612963D03*
%TO.P,J2,11,OUT4*%
%TO.N,/OUT4*%
X133905000Y-78152963D03*
X133905000Y-78152963D03*
%TO.P,J2,12,AGND*%
%TO.N,GNDA*%
X133905000Y-80692963D03*
X133905000Y-80692963D03*
%TD*%
D12*
%TO.P,R4,1*%
%TO.N,GNDD*%
X144964000Y-39545000D03*
%TO.P,R4,2*%
%TO.N,Net-(U3-SDO{slash}ADDR)*%
X144964000Y-41195000D03*
%TD*%
D13*
%TO.P,R8,1*%
%TO.N,/GP28*%
X163870500Y-46990000D03*
%TO.P,R8,2*%
%TO.N,VSS*%
X165520500Y-46990000D03*
%TD*%
D12*
%TO.P,R7,1*%
%TO.N,/GP26*%
X149000000Y-68175000D03*
%TO.P,R7,2*%
%TO.N,VSS*%
X149000000Y-69825000D03*
%TD*%
%TO.P,R6,1*%
%TO.N,/GP27*%
X155000000Y-68087500D03*
%TO.P,R6,2*%
%TO.N,VSS*%
X155000000Y-69737500D03*
%TD*%
D14*
%TO.P,R5,1*%
%TO.N,Net-(U3-~{CS})*%
X147250000Y-41195000D03*
%TO.P,R5,2*%
%TO.N,VSS*%
X147250000Y-39545000D03*
%TD*%
%TO.P,R3,1*%
%TO.N,Net-(U3-SDO{slash}ADDR)*%
X142678000Y-41195000D03*
%TO.P,R3,2*%
%TO.N,VSS*%
X142678000Y-39545000D03*
%TD*%
%TO.P,R2,1*%
%TO.N,/SDA*%
X158934000Y-41195000D03*
%TO.P,R2,2*%
%TO.N,VSS*%
X158934000Y-39545000D03*
%TD*%
%TO.P,R1,1*%
%TO.N,/SCL*%
X156394000Y-41195000D03*
%TO.P,R1,2*%
%TO.N,VSS*%
X156394000Y-39545000D03*
%TD*%
D15*
%TO.P,C1,1*%
%TO.N,VSS*%
X161474000Y-41041500D03*
%TO.P,C1,2*%
%TO.N,GNDD*%
X161474000Y-39491500D03*
%TD*%
D16*
%TO.P,SW1,A,A*%
%TO.N,/GP26*%
X149305000Y-61490000D03*
%TO.P,SW1,B,B*%
%TO.N,/GP27*%
X154305000Y-61490000D03*
%TO.P,SW1,C,C*%
%TO.N,GNDD*%
X151805000Y-61490000D03*
%TO.P,SW1,S1,S1*%
%TO.N,/GP28*%
X149305000Y-46990000D03*
%TO.P,SW1,S2,S2*%
%TO.N,GNDD*%
X154305000Y-46990000D03*
D17*
%TO.P,SW1,SH*%
%TO.N,N/C*%
X145205000Y-53990000D03*
X158405000Y-53990000D03*
%TD*%
D18*
%TO.P,RV1,1,1*%
%TO.N,GNDA*%
X150355000Y-137609000D03*
D19*
%TO.P,RV1,2,2*%
%TO.N,/IN3*%
X153855000Y-137609000D03*
%TO.P,RV1,3,3*%
%TO.N,VSS*%
X150355000Y-79109000D03*
D20*
%TO.P,RV1,MP*%
%TO.N,N/C*%
X156305000Y-133459000D03*
X147905000Y-132259000D03*
X147905000Y-84459000D03*
X156305000Y-83259000D03*
%TD*%
D21*
%TO.P,U3,1,Vdd_I/O*%
%TO.N,VSS*%
X153822000Y-39370000D03*
%TO.P,U3,2,GND*%
%TO.N,GNDD*%
X153022000Y-39370000D03*
%TO.P,U3,3,RES*%
%TO.N,unconnected-(U3-RES-Pad3)*%
X152222000Y-39370000D03*
%TO.P,U3,4,GND*%
%TO.N,GNDD*%
X151422000Y-39370000D03*
%TO.P,U3,5,GND*%
X150622000Y-39370000D03*
%TO.P,U3,6,Vs*%
%TO.N,VSS*%
X149822000Y-39370000D03*
D22*
%TO.P,U3,7,~{CS}*%
%TO.N,Net-(U3-~{CS})*%
X149822000Y-40370000D03*
D21*
%TO.P,U3,8,INT1*%
%TO.N,unconnected-(U3-INT1-Pad8)*%
X149822000Y-41370000D03*
%TO.P,U3,9,INT2*%
%TO.N,unconnected-(U3-INT2-Pad9)*%
X150622000Y-41370000D03*
%TO.P,U3,10,NC*%
%TO.N,unconnected-(U3-NC-Pad10)*%
X151422000Y-41370000D03*
%TO.P,U3,11,RES*%
%TO.N,unconnected-(U3-RES-Pad11)*%
X152222000Y-41370000D03*
%TO.P,U3,12,SDO/ADDR*%
%TO.N,Net-(U3-SDO{slash}ADDR)*%
X153022000Y-41370000D03*
%TO.P,U3,13,SDA/SDI/SDIO*%
%TO.N,/SDA*%
X153822000Y-41370000D03*
D22*
%TO.P,U3,14,SCL/SCLK*%
%TO.N,/SCL*%
X153822000Y-40370000D03*
%TD*%
D23*
%TO.N,Net-(U3-~{CS})*%
X149822000Y-40370000D02*
X148162500Y-40370000D01*
X148162500Y-40370000D02*
X147250000Y-41282500D01*
%TO.N,VSS*%
X158934000Y-39457500D02*
X156394000Y-39457500D01*
X172215290Y-59003307D02*
X171530000Y-58318017D01*
X161474000Y-41129000D02*
X159802500Y-39457500D01*
X150355000Y-79109000D02*
X149000000Y-77754000D01*
X164513449Y-41129000D02*
X174780000Y-51395551D01*
X174780000Y-51395551D02*
X174780000Y-57418017D01*
X133905000Y-52752963D02*
X135080000Y-53927963D01*
X143690500Y-40470000D02*
X146237500Y-40470000D01*
X153909500Y-39457500D02*
X153822000Y-39370000D01*
X135080000Y-55992500D02*
X149000000Y-69912500D01*
X155000000Y-69825000D02*
X155000000Y-74464000D01*
X172705000Y-52752963D02*
X171370963Y-52752963D01*
X149000000Y-77754000D02*
X149000000Y-69912500D01*
X146237500Y-40470000D02*
X147250000Y-39457500D01*
X171530000Y-53927963D02*
X172705000Y-52752963D01*
X161474000Y-41129000D02*
X164513449Y-41129000D01*
X171370963Y-52752963D02*
X165608000Y-46990000D01*
X147337500Y-39370000D02*
X147250000Y-39457500D01*
X155000000Y-74464000D02*
X150355000Y-79109000D01*
X158987500Y-39404000D02*
X158934000Y-39457500D01*
X156394000Y-39457500D02*
X153909500Y-39457500D01*
X173194710Y-59003307D02*
X172215290Y-59003307D01*
X174780000Y-57418017D02*
X173194710Y-59003307D01*
X142678000Y-39457500D02*
X143690500Y-40470000D01*
X149822000Y-39370000D02*
X147337500Y-39370000D01*
X159802500Y-39457500D02*
X158934000Y-39457500D01*
X171530000Y-58318017D02*
X171530000Y-53927963D01*
X135080000Y-53927963D02*
X135080000Y-55992500D01*
%TO.N,GNDD*%
X171863963Y-68834000D02*
X172705000Y-67992963D01*
X151422000Y-38342500D02*
X151314000Y-38234500D01*
X161474000Y-39404000D02*
X160304500Y-38234500D01*
X151805000Y-49490000D02*
X154305000Y-46990000D01*
X151805000Y-61490000D02*
X151805000Y-66207000D01*
X141878000Y-41765496D02*
X148189504Y-48077000D01*
X150552000Y-38234500D02*
X151314000Y-38234500D01*
X144964000Y-39457500D02*
X144151500Y-38645000D01*
X144964000Y-39457500D02*
X146187000Y-38234500D01*
X153218000Y-48077000D02*
X148189504Y-48077000D01*
X154305000Y-46990000D02*
X153218000Y-48077000D01*
X152361500Y-38234500D02*
X151314000Y-38234500D01*
X142203000Y-38645000D02*
X141878000Y-38970000D01*
X153022000Y-39370000D02*
X153022000Y-38895000D01*
X151805000Y-61490000D02*
X151805000Y-49490000D01*
X151805000Y-66207000D02*
X154432000Y-68834000D01*
X150622000Y-38304500D02*
X150552000Y-38234500D01*
X141878000Y-38970000D02*
X141878000Y-41765496D01*
X151422000Y-39370000D02*
X151422000Y-38342500D01*
X146187000Y-38234500D02*
X150552000Y-38234500D01*
X144151500Y-38645000D02*
X142203000Y-38645000D01*
X160304500Y-38234500D02*
X152361500Y-38234500D01*
X153022000Y-38895000D02*
X152361500Y-38234500D01*
X154432000Y-68834000D02*
X171863963Y-68834000D01*
X150622000Y-39370000D02*
X150622000Y-38304500D01*
%TO.N,Net-(U3-SDO{slash}ADDR)*%
X142678000Y-41282500D02*
X144964000Y-41282500D01*
X144964000Y-41282500D02*
X145851500Y-42170000D01*
X153022000Y-41860500D02*
X153022000Y-41370000D01*
X152712500Y-42170000D02*
X153022000Y-41860500D01*
X145851500Y-42170000D02*
X152712500Y-42170000D01*
%TO.N,/IN3*%
X154730000Y-137609000D02*
X171530000Y-120809000D01*
X153855000Y-137609000D02*
X154730000Y-137609000D01*
X171530000Y-71707963D02*
X172705000Y-70532963D01*
X171530000Y-120809000D02*
X171530000Y-71707963D01*
%TO.N,/GP28*%
X149305000Y-46990000D02*
X150392000Y-45903000D01*
X163783000Y-56530963D02*
X172705000Y-65452963D01*
X150392000Y-45903000D02*
X162696000Y-45903000D01*
X162696000Y-45903000D02*
X163783000Y-46990000D01*
X163783000Y-46990000D02*
X163783000Y-56530963D01*
%TO.N,/GP27*%
X155000000Y-62185000D02*
X154305000Y-61490000D01*
X155000000Y-68000000D02*
X155000000Y-62185000D01*
%TO.N,/GP26*%
X149405000Y-61583963D02*
X149405000Y-67682500D01*
X149405000Y-67682500D02*
X149000000Y-68087500D01*
%TO.N,/SCL*%
X159404496Y-40470000D02*
X159734000Y-40799504D01*
X159734000Y-43148000D02*
X160020000Y-43434000D01*
X174330000Y-51581947D02*
X174330000Y-56207963D01*
X156394000Y-41282500D02*
X155481500Y-40370000D01*
X174330000Y-51581947D02*
X166182053Y-43434000D01*
X157206500Y-40470000D02*
X159404496Y-40470000D01*
X174330000Y-56207963D02*
X172705000Y-57832963D01*
X166182053Y-43434000D02*
X160020000Y-43434000D01*
X155481500Y-40370000D02*
X153822000Y-40370000D01*
X159734000Y-40799504D02*
X159734000Y-43148000D01*
X156394000Y-41282500D02*
X157206500Y-40470000D01*
%TO.N,/SDA*%
X158934000Y-43364000D02*
X159639000Y-44069000D01*
X158121500Y-42095000D02*
X154547000Y-42095000D01*
X173880000Y-54117963D02*
X172705000Y-55292963D01*
X173880000Y-51768343D02*
X173880000Y-54117963D01*
X158934000Y-41282500D02*
X158121500Y-42095000D01*
X159639000Y-44069000D02*
X166180657Y-44069000D01*
X166180657Y-44069000D02*
X173880000Y-51768343D01*
X154547000Y-42095000D02*
X153822000Y-41370000D01*
X158934000Y-41282500D02*
X158934000Y-43364000D01*
%TO.N,GNDA*%
X150355000Y-137609000D02*
X150355000Y-97142963D01*
X150355000Y-97142963D02*
X133905000Y-80692963D01*
%TD*%
M02*
